<svg width="674" height="68" viewBox="0 0 674 68" fill="none" xmlns="http://www.w3.org/2000/svg">
<rect x="-0.000244141" width="674" height="68" rx="10" fill="white"/>
<path d="M51.3547 30.032V33.76H55.4187V34.96H51.3547V38.8H55.8987V40H49.8987V28.832H55.8987V30.032H51.3547ZM62.3739 31.072C63.4405 31.072 64.3045 31.3973 64.9659 32.048C65.6272 32.688 65.9579 33.616 65.9579 34.832V40H64.5179V35.04C64.5179 34.1653 64.2992 33.4987 63.8619 33.04C63.4245 32.5707 62.8272 32.336 62.0699 32.336C61.3019 32.336 60.6885 32.576 60.2299 33.056C59.7819 33.536 59.5579 34.2347 59.5579 35.152V40H58.1019V31.232H59.5579V32.48C59.8459 32.032 60.2352 31.6853 60.7259 31.44C61.2272 31.1947 61.7765 31.072 62.3739 31.072ZM70.1122 32.432V37.6C70.1122 38.0267 70.2029 38.3307 70.3842 38.512C70.5656 38.6827 70.8802 38.768 71.3282 38.768H72.4002V40H71.0882C70.2776 40 69.6696 39.8133 69.2642 39.44C68.8589 39.0667 68.6562 38.4533 68.6562 37.6V32.432H67.5202V31.232H68.6562V29.024H70.1122V31.232H72.4002V32.432H70.1122ZM82.1644 35.28C82.1644 35.5573 82.1484 35.8507 82.1164 36.16H75.1084C75.1617 37.024 75.455 37.7013 75.9884 38.192C76.5324 38.672 77.1884 38.912 77.9564 38.912C78.5857 38.912 79.1084 38.768 79.5244 38.48C79.951 38.1813 80.2497 37.7867 80.4204 37.296H81.9884C81.7537 38.1387 81.2844 38.8267 80.5804 39.36C79.8764 39.8827 79.0017 40.144 77.9564 40.144C77.1244 40.144 76.3777 39.9573 75.7164 39.584C75.0657 39.2107 74.5537 38.6827 74.1804 38C73.807 37.3067 73.6204 36.5067 73.6204 35.6C73.6204 34.6933 73.8017 33.8987 74.1644 33.216C74.527 32.5333 75.0337 32.0107 75.6844 31.648C76.3457 31.2747 77.103 31.088 77.9564 31.088C78.7884 31.088 79.5244 31.2693 80.1644 31.632C80.8044 31.9947 81.295 32.496 81.6364 33.136C81.9884 33.7653 82.1644 34.48 82.1644 35.28ZM80.6604 34.976C80.6604 34.4213 80.5377 33.9467 80.2924 33.552C80.047 33.1467 79.711 32.8427 79.2844 32.64C78.8684 32.4267 78.4044 32.32 77.8924 32.32C77.1564 32.32 76.527 32.5547 76.0044 33.024C75.4924 33.4933 75.199 34.144 75.1244 34.976H80.6604ZM85.5422 32.656C85.7982 32.1547 86.1609 31.7653 86.6302 31.488C87.1102 31.2107 87.6916 31.072 88.3742 31.072V32.576H87.9902C86.3582 32.576 85.5422 33.4613 85.5422 35.232V40H84.0862V31.232H85.5422V32.656ZM101.873 31.232L96.5926 44.128H95.0886L96.8166 39.904L93.2806 31.232H94.8966L97.6486 38.336L100.369 31.232H101.873ZM107.16 40.144C106.339 40.144 105.592 39.9573 104.92 39.584C104.259 39.2107 103.736 38.6827 103.352 38C102.979 37.3067 102.792 36.5067 102.792 35.6C102.792 34.704 102.984 33.9147 103.368 33.232C103.763 32.5387 104.296 32.0107 104.968 31.648C105.64 31.2747 106.392 31.088 107.224 31.088C108.056 31.088 108.808 31.2747 109.48 31.648C110.152 32.0107 110.68 32.5333 111.064 33.216C111.459 33.8987 111.656 34.6933 111.656 35.6C111.656 36.5067 111.454 37.3067 111.048 38C110.654 38.6827 110.115 39.2107 109.432 39.584C108.75 39.9573 107.992 40.144 107.16 40.144ZM107.16 38.864C107.683 38.864 108.174 38.7413 108.632 38.496C109.091 38.2507 109.459 37.8827 109.736 37.392C110.024 36.9013 110.168 36.304 110.168 35.6C110.168 34.896 110.03 34.2987 109.752 33.808C109.475 33.3173 109.112 32.9547 108.664 32.72C108.216 32.4747 107.731 32.352 107.208 32.352C106.675 32.352 106.184 32.4747 105.736 32.72C105.299 32.9547 104.947 33.3173 104.68 33.808C104.414 34.2987 104.28 34.896 104.28 35.6C104.28 36.3147 104.408 36.9173 104.664 37.408C104.931 37.8987 105.283 38.2667 105.72 38.512C106.158 38.7467 106.638 38.864 107.16 38.864ZM121.347 31.232V40H119.891V38.704C119.613 39.152 119.224 39.504 118.723 39.76C118.232 40.0053 117.688 40.128 117.091 40.128C116.408 40.128 115.795 39.9893 115.251 39.712C114.707 39.424 114.275 38.9973 113.955 38.432C113.645 37.8667 113.491 37.1787 113.491 36.368V31.232H114.931V36.176C114.931 37.04 115.149 37.7067 115.587 38.176C116.024 38.6347 116.621 38.864 117.379 38.864C118.157 38.864 118.771 38.624 119.219 38.144C119.667 37.664 119.891 36.9653 119.891 36.048V31.232H121.347ZM125.261 32.656C125.517 32.1547 125.88 31.7653 126.349 31.488C126.829 31.2107 127.41 31.072 128.093 31.072V32.576H127.709C126.077 32.576 125.261 33.4613 125.261 35.232V40H123.805V31.232H125.261V32.656ZM144.583 31.072C145.266 31.072 145.874 31.216 146.407 31.504C146.941 31.7813 147.362 32.2027 147.671 32.768C147.981 33.3333 148.135 34.0213 148.135 34.832V40H146.695V35.04C146.695 34.1653 146.477 33.4987 146.039 33.04C145.613 32.5707 145.031 32.336 144.295 32.336C143.538 32.336 142.935 32.5813 142.487 33.072C142.039 33.552 141.815 34.2507 141.815 35.168V40H140.375V35.04C140.375 34.1653 140.157 33.4987 139.719 33.04C139.293 32.5707 138.711 32.336 137.975 32.336C137.218 32.336 136.615 32.5813 136.167 33.072C135.719 33.552 135.495 34.2507 135.495 35.168V40H134.039V31.232H135.495V32.496C135.783 32.0373 136.167 31.6853 136.647 31.44C137.138 31.1947 137.677 31.072 138.263 31.072C138.999 31.072 139.65 31.2373 140.215 31.568C140.781 31.8987 141.202 32.384 141.479 33.024C141.725 32.4053 142.13 31.9253 142.695 31.584C143.261 31.2427 143.89 31.072 144.583 31.072ZM149.98 35.584C149.98 34.688 150.161 33.904 150.524 33.232C150.886 32.5493 151.382 32.0213 152.012 31.648C152.652 31.2747 153.361 31.088 154.14 31.088C154.908 31.088 155.574 31.2533 156.14 31.584C156.705 31.9147 157.126 32.3307 157.404 32.832V31.232H158.876V40H157.404V38.368C157.116 38.88 156.684 39.3067 156.108 39.648C155.542 39.9787 154.881 40.144 154.124 40.144C153.345 40.144 152.641 39.952 152.012 39.568C151.382 39.184 150.886 38.6453 150.524 37.952C150.161 37.2587 149.98 36.4693 149.98 35.584ZM157.404 35.6C157.404 34.9387 157.27 34.3627 157.004 33.872C156.737 33.3813 156.374 33.008 155.916 32.752C155.468 32.4853 154.972 32.352 154.428 32.352C153.884 32.352 153.388 32.48 152.94 32.736C152.492 32.992 152.134 33.3653 151.868 33.856C151.601 34.3467 151.468 34.9227 151.468 35.584C151.468 36.256 151.601 36.8427 151.868 37.344C152.134 37.8347 152.492 38.2133 152.94 38.48C153.388 38.736 153.884 38.864 154.428 38.864C154.972 38.864 155.468 38.736 155.916 38.48C156.374 38.2133 156.737 37.8347 157.004 37.344C157.27 36.8427 157.404 36.2613 157.404 35.6ZM162.088 29.808C161.811 29.808 161.576 29.712 161.384 29.52C161.192 29.328 161.096 29.0933 161.096 28.816C161.096 28.5387 161.192 28.304 161.384 28.112C161.576 27.92 161.811 27.824 162.088 27.824C162.355 27.824 162.579 27.92 162.76 28.112C162.952 28.304 163.048 28.5387 163.048 28.816C163.048 29.0933 162.952 29.328 162.76 29.52C162.579 29.712 162.355 29.808 162.088 29.808ZM162.792 31.232V40H161.336V31.232H162.792ZM166.73 28.16V40H165.274V28.16H166.73Z" fill="#999999"/>
<path d="M25.5557 31.333L30.289 34.883C30.6446 35.1497 31.1334 35.1497 31.489 34.883L36.2223 31.333" stroke="#999999" stroke-linecap="round"/>
<rect x="22.5" y="26.5" width="17.6667" height="15" rx="4.5" stroke="#999999"/>
<rect x="533" y="9" width="132" height="50" rx="8" fill="#FA7436"/>
<path d="M563.768 40.112C563.032 40.112 562.37 39.984 561.784 39.728C561.208 39.4613 560.754 39.0987 560.424 38.64C560.093 38.1707 559.922 37.632 559.912 37.024H561.464C561.517 37.5467 561.73 37.9893 562.104 38.352C562.488 38.704 563.042 38.88 563.768 38.88C564.461 38.88 565.005 38.7093 565.4 38.368C565.805 38.016 566.008 37.568 566.008 37.024C566.008 36.5973 565.89 36.2507 565.656 35.984C565.421 35.7173 565.128 35.5147 564.776 35.376C564.424 35.2373 563.949 35.088 563.352 34.928C562.616 34.736 562.024 34.544 561.576 34.352C561.138 34.16 560.76 33.8613 560.44 33.456C560.13 33.04 559.976 32.4853 559.976 31.792C559.976 31.184 560.13 30.6453 560.44 30.176C560.749 29.7067 561.181 29.344 561.736 29.088C562.301 28.832 562.946 28.704 563.672 28.704C564.717 28.704 565.57 28.9653 566.232 29.488C566.904 30.0107 567.282 30.704 567.368 31.568H565.768C565.714 31.1413 565.49 30.768 565.096 30.448C564.701 30.1173 564.178 29.952 563.528 29.952C562.92 29.952 562.424 30.112 562.04 30.432C561.656 30.7413 561.464 31.1787 561.464 31.744C561.464 32.1493 561.576 32.48 561.8 32.736C562.034 32.992 562.317 33.1893 562.648 33.328C562.989 33.456 563.464 33.6053 564.072 33.776C564.808 33.9787 565.4 34.1813 565.848 34.384C566.296 34.576 566.68 34.88 567 35.296C567.32 35.7013 567.48 36.256 567.48 36.96C567.48 37.504 567.336 38.016 567.048 38.496C566.76 38.976 566.333 39.3653 565.768 39.664C565.202 39.9627 564.536 40.112 563.768 40.112ZM577.398 31.232V40H575.942V38.704C575.665 39.152 575.276 39.504 574.774 39.76C574.284 40.0053 573.74 40.128 573.142 40.128C572.46 40.128 571.846 39.9893 571.302 39.712C570.758 39.424 570.326 38.9973 570.006 38.432C569.697 37.8667 569.542 37.1787 569.542 36.368V31.232H570.982V36.176C570.982 37.04 571.201 37.7067 571.638 38.176C572.076 38.6347 572.673 38.864 573.43 38.864C574.209 38.864 574.822 38.624 575.27 38.144C575.718 37.664 575.942 36.9653 575.942 36.048V31.232H577.398ZM581.313 32.864C581.611 32.3413 582.049 31.9147 582.625 31.584C583.201 31.2533 583.857 31.088 584.593 31.088C585.382 31.088 586.091 31.2747 586.721 31.648C587.35 32.0213 587.846 32.5493 588.209 33.232C588.571 33.904 588.753 34.688 588.753 35.584C588.753 36.4693 588.571 37.2587 588.209 37.952C587.846 38.6453 587.345 39.184 586.705 39.568C586.075 39.952 585.371 40.144 584.593 40.144C583.835 40.144 583.169 39.9787 582.593 39.648C582.027 39.3173 581.601 38.896 581.313 38.384V40H579.857V28.16H581.313V32.864ZM587.265 35.584C587.265 34.9227 587.131 34.3467 586.865 33.856C586.598 33.3653 586.235 32.992 585.777 32.736C585.329 32.48 584.833 32.352 584.289 32.352C583.755 32.352 583.259 32.4853 582.801 32.752C582.353 33.008 581.99 33.3867 581.713 33.888C581.446 34.3787 581.313 34.9493 581.313 35.6C581.313 36.2613 581.446 36.8427 581.713 37.344C581.99 37.8347 582.353 38.2133 582.801 38.48C583.259 38.736 583.755 38.864 584.289 38.864C584.833 38.864 585.329 38.736 585.777 38.48C586.235 38.2133 586.598 37.8347 586.865 37.344C587.131 36.8427 587.265 36.256 587.265 35.584ZM593.773 40.144C593.101 40.144 592.499 40.032 591.965 39.808C591.432 39.5733 591.011 39.2533 590.701 38.848C590.392 38.432 590.221 37.9573 590.189 37.424H591.693C591.736 37.8613 591.939 38.2187 592.301 38.496C592.675 38.7733 593.16 38.912 593.757 38.912C594.312 38.912 594.749 38.7893 595.069 38.544C595.389 38.2987 595.549 37.9893 595.549 37.616C595.549 37.232 595.379 36.9493 595.037 36.768C594.696 36.576 594.168 36.3893 593.453 36.208C592.803 36.0373 592.269 35.8667 591.853 35.696C591.448 35.5147 591.096 35.2533 590.797 34.912C590.509 34.56 590.365 34.1013 590.365 33.536C590.365 33.088 590.499 32.6773 590.765 32.304C591.032 31.9307 591.411 31.6373 591.901 31.424C592.392 31.2 592.952 31.088 593.581 31.088C594.552 31.088 595.336 31.3333 595.933 31.824C596.531 32.3147 596.851 32.9867 596.893 33.84H595.437C595.405 33.3813 595.219 33.0133 594.877 32.736C594.547 32.4587 594.099 32.32 593.533 32.32C593.011 32.32 592.595 32.432 592.285 32.656C591.976 32.88 591.821 33.1733 591.821 33.536C591.821 33.824 591.912 34.064 592.093 34.256C592.285 34.4373 592.52 34.5867 592.797 34.704C593.085 34.8107 593.48 34.9333 593.981 35.072C594.611 35.2427 595.123 35.4133 595.517 35.584C595.912 35.744 596.248 35.9893 596.525 36.32C596.813 36.6507 596.963 37.0827 596.973 37.616C596.973 38.096 596.84 38.528 596.573 38.912C596.307 39.296 595.928 39.6 595.437 39.824C594.957 40.0373 594.403 40.144 593.773 40.144ZM598.485 35.6C598.485 34.6933 598.666 33.904 599.029 33.232C599.391 32.5493 599.893 32.0213 600.533 31.648C601.183 31.2747 601.925 31.088 602.757 31.088C603.834 31.088 604.719 31.3493 605.413 31.872C606.117 32.3947 606.581 33.12 606.805 34.048H605.237C605.087 33.5147 604.794 33.0933 604.357 32.784C603.93 32.4747 603.397 32.32 602.757 32.32C601.925 32.32 601.253 32.608 600.741 33.184C600.229 33.7493 599.973 34.5547 599.973 35.6C599.973 36.656 600.229 37.472 600.741 38.048C601.253 38.624 601.925 38.912 602.757 38.912C603.397 38.912 603.93 38.7627 604.357 38.464C604.783 38.1653 605.077 37.7387 605.237 37.184H606.805C606.57 38.08 606.101 38.8 605.397 39.344C604.693 39.8773 603.813 40.144 602.757 40.144C601.925 40.144 601.183 39.9573 600.533 39.584C599.893 39.2107 599.391 38.6827 599.029 38C598.666 37.3173 598.485 36.5173 598.485 35.6ZM610.203 32.656C610.459 32.1547 610.822 31.7653 611.291 31.488C611.771 31.2107 612.353 31.072 613.035 31.072V32.576H612.651C611.019 32.576 610.203 33.4613 610.203 35.232V40H608.747V31.232H610.203V32.656ZM615.468 29.808C615.191 29.808 614.956 29.712 614.764 29.52C614.572 29.328 614.476 29.0933 614.476 28.816C614.476 28.5387 614.572 28.304 614.764 28.112C614.956 27.92 615.191 27.824 615.468 27.824C615.735 27.824 615.959 27.92 616.14 28.112C616.332 28.304 616.428 28.5387 616.428 28.816C616.428 29.0933 616.332 29.328 616.14 29.52C615.959 29.712 615.735 29.808 615.468 29.808ZM616.172 31.232V40H614.716V31.232H616.172ZM620.11 32.864C620.408 32.3413 620.846 31.9147 621.422 31.584C621.998 31.2533 622.654 31.088 623.39 31.088C624.179 31.088 624.888 31.2747 625.518 31.648C626.147 32.0213 626.643 32.5493 627.006 33.232C627.368 33.904 627.55 34.688 627.55 35.584C627.55 36.4693 627.368 37.2587 627.006 37.952C626.643 38.6453 626.142 39.184 625.502 39.568C624.872 39.952 624.168 40.144 623.39 40.144C622.632 40.144 621.966 39.9787 621.39 39.648C620.824 39.3173 620.398 38.896 620.11 38.384V40H618.654V28.16H620.11V32.864ZM626.062 35.584C626.062 34.9227 625.928 34.3467 625.662 33.856C625.395 33.3653 625.032 32.992 624.574 32.736C624.126 32.48 623.63 32.352 623.086 32.352C622.552 32.352 622.056 32.4853 621.598 32.752C621.15 33.008 620.787 33.3867 620.51 33.888C620.243 34.3787 620.11 34.9493 620.11 35.6C620.11 36.2613 620.243 36.8427 620.51 37.344C620.787 37.8347 621.15 38.2133 621.598 38.48C622.056 38.736 622.552 38.864 623.086 38.864C623.63 38.864 624.126 38.736 624.574 38.48C625.032 38.2133 625.395 37.8347 625.662 37.344C625.928 36.8427 626.062 36.256 626.062 35.584ZM637.466 35.28C637.466 35.5573 637.45 35.8507 637.418 36.16H630.41C630.463 37.024 630.757 37.7013 631.29 38.192C631.834 38.672 632.49 38.912 633.258 38.912C633.887 38.912 634.41 38.768 634.826 38.48C635.253 38.1813 635.551 37.7867 635.722 37.296H637.29C637.055 38.1387 636.586 38.8267 635.882 39.36C635.178 39.8827 634.303 40.144 633.258 40.144C632.426 40.144 631.679 39.9573 631.018 39.584C630.367 39.2107 629.855 38.6827 629.482 38C629.109 37.3067 628.922 36.5067 628.922 35.6C628.922 34.6933 629.103 33.8987 629.466 33.216C629.829 32.5333 630.335 32.0107 630.986 31.648C631.647 31.2747 632.405 31.088 633.258 31.088C634.09 31.088 634.826 31.2693 635.466 31.632C636.106 31.9947 636.597 32.496 636.938 33.136C637.29 33.7653 637.466 34.48 637.466 35.28ZM635.962 34.976C635.962 34.4213 635.839 33.9467 635.594 33.552C635.349 33.1467 635.013 32.8427 634.586 32.64C634.17 32.4267 633.706 32.32 633.194 32.32C632.458 32.32 631.829 32.5547 631.306 33.024C630.794 33.4933 630.501 34.144 630.426 34.976H635.962Z" fill="white"/>
</svg>
